<svg width="84" height="32" viewBox="0 0 84 32" fill="none" xmlns="http://www.w3.org/2000/svg">
<path d="M13.0068 7.70563C13.0693 7.73687 13.1193 7.81187 13.1943 7.81187C13.263 7.81187 13.3693 7.78687 13.3755 7.71813C13.388 7.63063 13.2568 7.57439 13.1755 7.53689C13.0693 7.49314 12.9318 7.4744 12.8318 7.53064C12.8068 7.54314 12.7818 7.57439 12.7943 7.59939C12.8131 7.68063 12.9381 7.66813 13.0068 7.70563ZM11.6382 7.81187C11.7132 7.81187 11.7632 7.73687 11.8256 7.70563C11.8944 7.66813 12.0194 7.68063 12.0444 7.60564C12.0569 7.58064 12.0319 7.54939 12.0069 7.53689C11.9069 7.48065 11.7694 7.49939 11.6632 7.54314C11.5819 7.58064 11.4507 7.63688 11.4632 7.72438C11.4694 7.78687 11.5757 7.81812 11.6382 7.81187ZM25.4558 25.2354C25.2308 24.9854 25.1245 24.5105 25.0058 24.0043C24.8933 23.4981 24.7621 22.9544 24.3496 22.6044C24.2684 22.5356 24.1871 22.4731 24.0996 22.4232C24.0184 22.3732 23.9309 22.3294 23.8434 22.2982C24.4184 20.5921 24.1934 18.8922 23.6122 17.3548C22.8997 15.4737 21.6561 13.8301 20.7062 12.7052C19.6375 11.3616 18.6001 10.0867 18.6188 8.20559C18.6501 5.33707 18.9376 0.00626755 13.8817 1.80719e-05C7.48226 -0.0124809 9.08213 6.46198 9.01338 8.44932C8.90714 9.91169 8.61342 11.0616 7.60725 12.4927C6.4261 13.8989 4.76374 16.1674 3.9763 18.536C3.60133 19.6546 3.42635 20.792 3.58884 21.8669C3.18262 22.2294 2.87639 22.7856 2.55142 23.1293C2.28894 23.3981 1.90773 23.4981 1.48901 23.648C1.07029 23.798 0.614083 24.023 0.332856 24.5542C0.201617 24.798 0.157871 25.0604 0.157871 25.3292C0.157871 25.5729 0.195368 25.8229 0.232864 26.0666C0.307858 26.5728 0.389102 27.0478 0.28286 27.3665C-0.0421125 28.2664 -0.085859 28.8914 0.145372 29.3476C0.382852 29.8038 0.857812 30.0038 1.40152 30.1163C2.48268 30.3412 3.95131 30.285 5.10746 30.8974C6.34486 31.5474 7.601 31.7786 8.60092 31.5474C9.32586 31.3849 9.91956 30.9474 10.2195 30.285C11.0007 30.2787 11.8631 29.9475 13.238 29.8725C14.1692 29.7975 15.3379 30.2038 16.6815 30.1288C16.719 30.2725 16.769 30.4162 16.8377 30.5475V30.5537C17.3564 31.5974 18.3251 32.0723 19.3563 31.9911C20.3937 31.9099 21.4873 31.3037 22.3748 30.2475C23.2247 29.2226 24.6246 28.7976 25.5558 28.2352C26.0182 27.9539 26.3932 27.604 26.4244 27.0915C26.4494 26.5791 26.1495 26.0104 25.4558 25.2354ZM13.188 5.45581C13.8005 4.06843 15.3254 4.09343 15.9378 5.43082C16.344 6.31824 16.1628 7.36191 15.6691 7.95561C15.5691 7.90561 15.3004 7.79312 14.8816 7.64938C14.9504 7.57439 15.0754 7.48065 15.1254 7.36191C15.4254 6.62447 15.1129 5.67455 14.5567 5.6558C14.1005 5.62455 13.688 6.33074 13.8192 7.09318C13.563 6.96819 13.2318 6.87445 13.0068 6.8182C12.9443 6.38699 12.9881 5.90578 13.188 5.45581ZM10.6445 4.73712C11.2757 4.73712 11.9444 5.62455 11.8381 6.8307C11.6194 6.89319 11.3944 6.98694 11.2007 7.11818C11.2757 6.56197 10.9945 5.86203 10.6008 5.89328C10.0758 5.93702 9.9883 7.21817 10.4883 7.64938C10.5508 7.69938 10.607 7.63688 10.1195 7.9931C9.14462 7.08068 9.46335 4.73712 10.6445 4.73712ZM9.79457 8.53056C10.182 8.24308 10.6445 7.90561 10.6757 7.87436C10.9695 7.59939 11.5194 6.98694 12.4193 6.98694C12.8631 6.98694 13.3943 7.13067 14.038 7.54314C14.4317 7.79937 14.7442 7.81812 15.4503 8.12434C15.9753 8.34307 16.3065 8.73054 16.1065 9.26175C15.9441 9.70546 15.4191 10.1617 14.6879 10.3929C13.9942 10.6179 13.4505 11.3928 12.3006 11.3241C12.0569 11.3116 11.8631 11.2616 11.7007 11.1928C11.2007 10.9741 10.9382 10.5429 10.4508 10.2554C9.91331 9.95544 9.62583 9.60547 9.53209 9.29924C9.4446 8.99302 9.53209 8.73679 9.79457 8.53056ZM10.0008 29.4038C9.83207 31.5974 7.25728 31.5536 5.29494 30.5287C3.42635 29.5413 1.0078 30.1225 0.514091 29.1601C0.364104 28.8664 0.364104 28.3664 0.676578 27.5102V27.4977C0.826565 27.0228 0.714074 26.4978 0.639081 26.0041C0.564087 25.5166 0.52659 25.0667 0.695326 24.7542C0.914058 24.3355 1.22653 24.1855 1.62025 24.048C2.26395 23.8168 2.35769 23.8355 2.84515 23.4293C3.18887 23.0731 3.43885 22.6231 3.73882 22.3044C4.05755 21.9607 4.36377 21.7982 4.84498 21.8732C5.35119 21.9482 5.78865 22.2982 6.21362 22.8731L7.43851 25.0979C8.03222 26.3416 10.132 28.1227 10.0008 29.4038ZM9.91331 27.7852C9.65708 27.3727 9.31336 26.9353 9.01338 26.5603C9.4571 26.5603 9.90081 26.4228 10.057 26.0041C10.2008 25.6166 10.057 25.0729 9.59459 24.448C8.75091 23.3106 7.20103 22.4169 7.20103 22.4169C6.35736 21.8919 5.88239 21.2482 5.66366 20.5483C5.44493 19.8484 5.47618 19.0922 5.64491 18.3485C5.96989 16.9174 6.80732 15.5237 7.34477 14.6488C7.48851 14.5426 7.39477 14.8488 6.80107 15.9487C6.26986 16.9549 5.2762 19.2797 6.63858 21.0983C6.67608 19.8046 6.9823 18.486 7.50101 17.2548C8.25095 15.5425 9.83207 12.574 9.95706 10.2117C10.0258 10.2617 10.2445 10.4117 10.3445 10.4679C10.632 10.6366 10.8507 10.8866 11.132 11.1116C11.9069 11.7365 12.9131 11.6865 13.7817 11.1866C14.1692 10.9679 14.4817 10.7179 14.7754 10.6241C15.3941 10.4304 15.8878 10.0867 16.169 9.68671C16.6502 11.5866 17.7752 14.3301 18.4938 15.6675C18.8751 16.3799 19.6375 17.886 19.9687 19.7046C20.175 19.6984 20.4062 19.7296 20.6499 19.7921C21.5123 17.5611 19.9187 15.155 19.1938 14.4863C18.9001 14.1988 18.8876 14.0738 19.0313 14.0801C19.8187 14.78 20.8561 16.1862 21.2311 17.7673C21.4061 18.4922 21.4373 19.2484 21.2561 19.9984C22.281 20.4233 23.4997 21.117 23.1747 22.1732C23.0372 22.1669 22.9747 22.1732 22.9122 22.1732C23.1122 21.542 22.6685 21.0733 21.4873 20.5421C20.2624 20.0046 19.2375 20.0046 19.0938 21.3232C18.3376 21.5857 17.9501 22.2419 17.7564 23.0294C17.5814 23.7293 17.5314 24.573 17.4814 25.5229C17.4502 26.0041 17.2564 26.6478 17.0565 27.3352C15.0504 28.7664 12.2631 29.3913 9.91331 27.7852ZM25.9995 27.0665C25.9432 28.1164 23.4247 28.3102 22.0498 29.9725C21.2249 30.9537 20.2125 31.4974 19.325 31.5661C18.4376 31.6349 17.6689 31.2662 17.219 30.36C16.9252 29.6663 17.069 28.9164 17.2877 28.0914C17.5189 27.204 17.8626 26.2916 17.9064 25.5541C17.9564 24.6042 18.0126 23.773 18.1689 23.1356C18.3314 22.4919 18.5813 22.0607 19.0251 21.817C19.0438 21.8045 19.0688 21.7982 19.0875 21.7857C19.1375 22.6106 19.5438 23.4481 20.2624 23.6293C21.0499 23.8355 22.181 23.1606 22.6622 22.6106C23.2247 22.5919 23.6434 22.5544 24.0746 22.9294C24.6933 23.4606 24.5183 24.823 25.1433 25.5291C25.8057 26.2541 26.0182 26.7478 25.9995 27.0665ZM10.0383 9.29299C10.1633 9.41173 10.332 9.57422 10.5383 9.73671C10.9507 10.0617 11.5257 10.3992 12.2444 10.3992C12.9693 10.3992 13.6505 10.0304 14.2317 9.72421C14.5379 9.56172 14.9129 9.28675 15.1566 9.07426C15.4004 8.86178 15.5253 8.68055 15.3504 8.6618C15.1754 8.64305 15.1879 8.82428 14.9754 8.98052C14.7004 9.1805 14.3692 9.44298 14.1067 9.59297C13.6442 9.85545 12.8881 10.2304 12.2381 10.2304C11.5882 10.2304 11.0695 9.93044 10.682 9.62422C10.4883 9.46798 10.3258 9.31174 10.2008 9.193C10.107 9.10551 10.082 8.90553 9.93206 8.88678C9.84457 8.88053 9.81957 9.11801 10.0383 9.29299Z" fill="white"/>
<path d="M40.1649 21.6V10.4H42.2449V19.84H48.1009V21.6H40.1649Z" fill="white"/>
<path d="M49.5511 21.6V13.056H51.5511V21.6H49.5511ZM50.5591 11.648C50.1857 11.648 49.8764 11.5307 49.6311 11.296C49.3964 11.0614 49.2791 10.7787 49.2791 10.448C49.2791 10.1067 49.3964 9.82405 49.6311 9.60005C49.8764 9.36538 50.1857 9.24805 50.5591 9.24805C50.9324 9.24805 51.2364 9.36005 51.4711 9.58405C51.7164 9.79738 51.8391 10.0694 51.8391 10.4C51.8391 10.752 51.7217 11.0507 51.4871 11.296C51.2524 11.5307 50.9431 11.648 50.5591 11.648Z" fill="white"/>
<path d="M59.0241 12.96C59.7067 12.96 60.3147 13.0934 60.8481 13.36C61.3921 13.6267 61.8187 14.0374 62.1281 14.592C62.4374 15.136 62.5921 15.84 62.5921 16.704V21.6H60.5921V16.96C60.5921 16.2027 60.4107 15.6374 60.0481 15.264C59.6961 14.8907 59.2001 14.704 58.5601 14.704C58.0907 14.704 57.6747 14.8 57.3121 14.992C56.9494 15.184 56.6667 15.472 56.4641 15.856C56.2721 16.2294 56.1761 16.704 56.1761 17.28V21.6H54.1761V13.056H56.0801V15.36L55.7441 14.656C56.0427 14.112 56.4747 13.696 57.0401 13.408C57.6161 13.1094 58.2774 12.96 59.0241 12.96Z" fill="white"/>
<path d="M68.7452 21.712C68.0199 21.712 67.3799 21.5787 66.8252 21.312C66.2705 21.0347 65.8385 20.6187 65.5292 20.064C65.2199 19.4987 65.0652 18.7894 65.0652 17.936V13.056H67.0652V17.664C67.0652 18.432 67.2359 19.008 67.5772 19.392C67.9292 19.7654 68.4252 19.952 69.0652 19.952C69.5345 19.952 69.9399 19.856 70.2812 19.664C70.6332 19.472 70.9052 19.184 71.0972 18.8C71.2999 18.416 71.4012 17.9414 71.4012 17.376V13.056H73.4012V21.6H71.4972V19.296L71.8332 20C71.5452 20.5547 71.1239 20.9814 70.5692 21.28C70.0145 21.568 69.4065 21.712 68.7452 21.712Z" fill="white"/>
<path d="M74.8518 21.6L78.6118 16.704L78.5798 17.776L74.9958 13.056H77.2198L79.7318 16.416H78.8838L81.4118 13.056H83.5718L79.9558 17.776L79.9718 16.704L83.7158 21.6H81.4598L78.8198 18.032L79.6518 18.144L77.0598 21.6H74.8518Z" fill="white"/>
</svg>
