<svg width="175" height="20" viewBox="0 0 175 20" fill="none" xmlns="http://www.w3.org/2000/svg">
<g clip-path="url(#clip0_643_1341)">
<path d="M152.49 19.9996C151.877 19.9996 151.341 19.6931 150.958 19.2333L146.13 12.7199C145.517 11.877 145.67 10.6509 146.513 10.0379C147.356 9.42489 148.582 9.57814 149.195 10.4211L154.023 16.9345C154.636 17.7774 154.483 19.0034 153.64 19.6165C153.333 19.8463 152.95 19.9996 152.49 19.9996Z" fill="#0096FF"/>
<path d="M90.8812 3.83142H80.9196C79.8468 3.83142 79.0038 2.98851 79.0038 1.91571C79.0038 0.842912 79.8468 0 80.9196 0H90.8812C91.954 0 92.7969 0.842912 92.7969 1.91571C92.7969 2.98851 91.954 3.83142 90.8812 3.83142Z" fill="#0096FF"/>
<path d="M88.7356 11.8773H80.9196C79.8468 11.8773 79.0038 11.0344 79.0038 9.96161C79.0038 8.88881 79.8468 8.0459 80.9196 8.0459H88.7356C89.8084 8.0459 90.6514 8.88881 90.6514 9.96161C90.6514 11.0344 89.8084 11.8773 88.7356 11.8773Z" fill="#0096FF"/>
<path d="M118.238 13.2567C117.165 13.2567 116.322 12.4138 116.322 11.341V1.91571C116.322 0.842912 117.165 0 118.238 0C119.31 0 120.153 0.842912 120.153 1.91571V11.341C120.153 12.4138 119.31 13.2567 118.238 13.2567Z" fill="#0096FF"/>
<path d="M23.7548 20C22.682 20 21.8391 19.1571 21.8391 18.0843V1.99234C21.8391 0.842912 22.682 0 23.7548 0C24.8276 0 25.6705 0.842912 25.6705 1.91571V18.0077C25.6705 19.0805 24.8276 20 23.7548 20Z" fill="#0096FF"/>
<path d="M51.2644 16.092H43.2184V1.91571C43.2184 0.842912 42.3755 0 41.3027 0C40.2299 0 39.387 0.842912 39.387 1.91571V18.0077C39.387 19.0805 40.2299 19.9234 41.3027 19.9234H51.2644C52.3372 19.9234 53.1801 19.0805 53.1801 18.0077C53.1801 16.9349 52.3372 16.092 51.2644 16.092Z" fill="#0096FF"/>
<path d="M65.9004 19.9998C65.1341 19.9998 64.4444 19.5401 64.1379 18.8504L56.8582 2.75844C56.3985 1.76227 56.8582 0.612847 57.8544 0.229705C58.8506 -0.230065 60 0.229705 60.3832 1.22587L67.6628 17.3178C68.1226 18.314 67.6628 19.4634 66.6667 19.8466C66.4368 19.9232 66.2069 19.9998 65.9004 19.9998Z" fill="#0096FF"/>
<path d="M110.805 3.83142H97.8544C96.7816 3.83142 95.9387 2.98851 95.9387 1.91571C95.9387 0.842912 96.7816 0 97.8544 0H110.805C111.877 0 112.72 0.842912 112.72 1.91571C112.72 2.98851 111.877 3.83142 110.805 3.83142Z" fill="#0096FF"/>
<path d="M159.847 20.0003C159.617 20.0003 159.31 19.9236 159.08 19.847C158.084 19.3872 157.701 18.2378 158.084 17.3183L165.364 1.22632C165.824 0.230152 166.973 -0.15299 167.893 0.230152C168.889 0.689922 169.272 1.83935 168.889 2.75889L161.609 18.8508C161.303 19.5405 160.613 20.0003 159.847 20.0003Z" fill="#0096FF"/>
<path d="M16.9349 5.51724C16.1686 6.28352 14.9425 6.28353 14.1762 5.59387C13.1034 4.44444 11.5709 3.83142 9.96169 3.83142C6.59004 3.83142 3.83142 6.59004 3.83142 9.96169C3.83142 11.0345 2.98851 11.8774 1.91571 11.8774C0.842912 11.8774 0 11.0345 0 9.96169C0 4.44444 4.44444 0 9.96169 0C12.567 0 15.0192 0.996169 16.8582 2.75862C17.7011 3.5249 17.7011 4.75096 16.9349 5.51724Z" fill="#0096FF"/>
<path d="M16.9349 14.4827C16.1686 13.7164 14.9425 13.7164 14.1762 14.4061C13.1034 15.4788 11.5709 16.0919 9.96169 16.0919C6.59004 16.0919 3.83142 13.3333 3.83142 9.96161C3.83142 8.88881 2.98851 8.0459 1.91571 8.0459C0.842912 8.0459 0 8.88881 0 9.96161C0 15.4788 4.44444 19.9233 9.96169 19.9233C12.567 19.9233 15.0192 18.9271 16.8582 17.1647C17.7011 16.475 17.7011 15.249 16.9349 14.4827Z" fill="#15FEA1"/>
<path d="M147.739 0H140.153C139.08 0 138.238 0.842912 138.238 1.91571V18.0077C138.238 19.0805 139.08 19.9234 140.153 19.9234C141.226 19.9234 142.069 19.0805 142.069 18.0077V3.83142H147.663C149.272 3.83142 150.575 5.1341 150.575 6.74329C150.575 8.35249 149.272 9.65517 147.663 9.65517C146.59 9.65517 145.747 10.4981 145.747 11.5709C145.747 12.6437 146.59 13.4866 147.663 13.4866C151.418 13.4866 154.406 10.4981 154.406 6.74329C154.483 2.98851 151.418 0 147.739 0Z" fill="#15FEA1"/>
<path d="M131.571 0C130.498 0 129.655 0.842912 129.655 1.91571V11.341C129.655 13.9464 127.51 16.092 124.904 16.092C122.299 16.092 120.153 13.9464 120.153 11.341C120.153 10.2682 119.31 9.42529 118.238 9.42529C117.165 9.42529 116.322 10.2682 116.322 11.341C116.322 16.092 120.153 19.9234 124.904 19.9234C129.655 19.9234 133.487 16.092 133.487 11.341V1.91571C133.487 0.842912 132.644 0 131.571 0Z" fill="#15FEA1"/>
<path d="M90.8812 16.092H82.8353V1.91571C82.8353 0.842912 81.9924 0 80.9196 0C79.8468 0 79.0038 0.842912 79.0038 1.91571V18.0077C79.0038 19.0805 79.8468 19.9234 80.9196 19.9234H90.8812C91.954 19.9234 92.7969 19.0805 92.7969 18.0077C92.7969 16.9349 91.954 16.092 90.8812 16.092Z" fill="#15FEA1"/>
<path d="M33.5632 20.0004H23.7548C22.682 20.0004 21.8391 19.1575 21.8391 18.0847C21.8391 17.0119 22.682 16.1689 23.7548 16.1689H33.5632C34.636 16.1689 35.4789 17.0119 35.4789 18.0847C35.4789 19.0808 34.636 20.0004 33.5632 20.0004Z" fill="#15FEA1"/>
<path d="M51.2644 3.83142H41.3027C40.2299 3.83142 39.387 2.98851 39.387 1.91571C39.387 0.842912 40.2299 0 41.3027 0H51.2644C52.3372 0 53.1801 0.842912 53.1801 1.91571C53.1801 2.98851 52.3372 3.83142 51.2644 3.83142Z" fill="#15FEA1"/>
<path d="M49.1188 11.8773H41.3027C40.2299 11.8773 39.387 11.0344 39.387 9.96161C39.387 8.88881 40.2299 8.0459 41.3027 8.0459H49.1188C50.1916 8.0459 51.0345 8.88881 51.0345 9.96161C51.0345 11.0344 50.1916 11.8773 49.1188 11.8773Z" fill="#15FEA1"/>
<path d="M65.9004 20.0003C65.6705 20.0003 65.364 19.9236 65.1341 19.847C64.1379 19.3872 63.7548 18.2378 64.1379 17.3183L71.4176 1.22632C71.8774 0.230152 73.0268 -0.15299 73.9464 0.230152C74.9425 0.689922 75.3257 1.83935 74.9425 2.75889L67.6628 18.8508C67.3563 19.5405 66.6667 20.0003 65.9004 20.0003Z" fill="#15FEA1"/>
<path d="M104.368 19.9995C103.295 19.9995 102.452 19.1566 102.452 18.0838V1.99188C102.452 0.919084 103.295 0.0761719 104.368 0.0761719C105.441 0.0761719 106.284 0.919084 106.284 1.99188V18.0838C106.284 19.08 105.441 19.9995 104.368 19.9995Z" fill="#15FEA1"/>
<path d="M172.644 15.9388H161.686C160.613 15.9388 159.77 15.0959 159.77 14.0231C159.77 12.9503 160.613 12.1074 161.686 12.1074H172.567C173.64 12.1074 174.483 12.9503 174.483 14.0231C174.483 15.0959 173.64 15.9388 172.644 15.9388Z" fill="#15FEA1"/>
</g>
<defs>
<clipPath id="clip0_643_1341">
<rect width="174.559" height="20" fill="white"/>
</clipPath>
</defs>
</svg>
