<svg width="34" height="24" viewBox="0 0 34 24" fill="none" xmlns="http://www.w3.org/2000/svg">
<path d="M0.333313 1.99134C0.333313 1.07467 1.07665 0.333008 1.99165 0.333008H15.3416C15.7815 0.333008 16.2033 0.507724 16.5143 0.818722C16.8253 1.12972 17 1.55152 17 1.99134C17 2.43116 16.8253 2.85296 16.5143 3.16396C16.2033 3.47496 15.7815 3.64967 15.3416 3.64967H1.99165C1.55183 3.64967 1.13003 3.47496 0.819028 3.16396C0.50803 2.85296 0.333313 2.43116 0.333313 1.99134ZM0.333313 11.9997C0.333313 11.083 1.07665 10.3413 1.99165 10.3413H32.0083C32.4481 10.3413 32.8699 10.5161 33.1809 10.8271C33.4919 11.1381 33.6666 11.5599 33.6666 11.9997C33.6666 12.4395 33.4919 12.8613 33.1809 13.1723C32.8699 13.4833 32.4481 13.658 32.0083 13.658H1.99165C1.55183 13.658 1.13003 13.4833 0.819028 13.1723C0.50803 12.8613 0.333313 12.4395 0.333313 11.9997ZM1.99165 20.3497C1.55183 20.3497 1.13003 20.5244 0.819028 20.8354C0.50803 21.1464 0.333313 21.5682 0.333313 22.008C0.333313 22.4478 0.50803 22.8696 0.819028 23.1806C1.13003 23.4916 1.55183 23.6663 1.99165 23.6663H22.0083C22.4481 23.6663 22.8699 23.4916 23.1809 23.1806C23.4919 22.8696 23.6666 22.4478 23.6666 22.008C23.6666 21.5682 23.4919 21.1464 23.1809 20.8354C22.8699 20.5244 22.4481 20.3497 22.0083 20.3497H1.99165Z" fill="white"/>
</svg>
