<svg width="86" height="18" viewBox="0 0 86 18" fill="none" xmlns="http://www.w3.org/2000/svg">
<path d="M34.2117 12.2248L32.0033 3.64495H29.9707L27.6254 12.1661L25.4756 3.64495H23.4625L26.443 14.3648H28.7101L30.899 6.11726L33.0684 14.3648H35.2866L38.1987 3.64495H36.2541L34.2117 12.2248ZM39.9577 3.39088C39.6645 3.39088 39.4104 3.4886 39.1954 3.68404C38.9902 3.87948 38.8827 4.12378 38.8827 4.42671C38.8827 4.72964 38.9902 4.9544 39.1954 5.14984C39.4007 5.34528 39.6547 5.443 39.9577 5.443C40.2606 5.443 40.5147 5.34528 40.7199 5.14984C40.9349 4.9544 41.0424 4.7101 41.0424 4.42671C41.0424 4.14332 40.9349 3.89902 40.7296 3.69381C40.5244 3.4886 40.2704 3.39088 39.9577 3.39088ZM39.0391 6.63518H40.8371V14.3648H39.0391V6.63518ZM47.0033 6.50814C45.899 6.50814 45.0586 6.82085 44.4723 7.72964H44.443V6.63518H42.684V14.3648H44.443V10.0065C44.443 8.98046 45.1564 7.96417 46.2899 7.96417C47.4235 7.96417 47.7753 8.9316 47.7753 10.0651V14.3648H49.5831V9.64495C49.5831 8.57003 49.3779 7.76873 48.9283 7.23127C48.4691 6.71336 47.8241 6.50814 47.0033 6.50814ZM56.6091 7.44625H56.5798C56.5798 7.44625 56.1205 6.50814 54.43 6.50814C53.3453 6.50814 52.4756 6.85016 51.8209 7.63192C51.1759 8.41368 50.8534 9.44951 50.8534 10.7394C50.8534 12.6938 51.7231 14.5309 54.088 14.5309C54.8795 14.5309 56.0228 14.316 56.5798 13.3779H56.6091V14.3648H58.4365V2.97068H56.6091V7.44625ZM56.6287 10.759C56.6189 11.8241 56.013 13.114 54.6645 13.114C53.2867 13.0945 52.759 11.9414 52.759 10.6808C52.759 9.22476 53.3257 7.96417 54.772 7.96417C56.0424 7.96417 56.6384 9.01954 56.6384 9.95765L56.6287 10.759ZM63.8502 6.46906C61.3095 6.46906 59.7069 7.89577 59.7069 10.6319C59.7069 13.0261 61.0456 14.5896 63.6547 14.5896C66.0586 14.5896 67.6515 13.1433 67.6515 10.4658C67.6612 7.9544 66.1759 6.46906 63.8502 6.46906ZM63.7329 13.0749C62.316 13.0749 61.6026 12.0977 61.6026 10.5733C61.6026 9.16612 62.1987 8.01303 63.7525 8.01303C65.3062 8.01303 65.785 9.33225 65.785 10.5244C65.7753 11.9121 65.2573 13.0749 63.7329 13.0749ZM76.3779 12.6254L74.8534 6.66449H73.0749L71.3648 12.645L69.899 6.66449H68.013L70.2606 14.3648H72.1857L73.8176 8.77524L75.3323 14.3648H77.3257L79.5342 6.66449H77.8046L76.3779 12.6254ZM84.7622 10.8664C84.4593 10.5049 83.9316 10.1922 83.1987 9.89902C82.7003 9.69381 81.8502 9.36156 81.8599 8.66775C81.8697 8.13029 82.3583 7.89577 83.0033 7.89577C83.9023 7.90554 84.772 8.50163 84.772 8.50163V6.77199C84.772 6.77199 84.2443 6.46906 83.013 6.46906C81.1564 6.46906 80.0033 7.44625 80.0033 8.83388C80.0033 9.20521 80.0912 9.49837 80.2085 9.77199C80.3257 10.0456 80.5114 10.2801 80.7557 10.4853C81 10.6906 81.3811 10.8958 81.8893 11.1205C82.3192 11.2964 82.6417 11.4528 82.8469 11.57C83.1401 11.7362 83.3941 11.9609 83.3648 12.3713C83.3648 12.8795 82.9837 13.1433 82.1433 13.1433C80.9121 13.1336 80.0326 12.3616 80.0326 12.3616V14.1889C80.0326 14.1889 81.0489 14.5798 82.0652 14.5798C83.6287 14.5798 85.1922 13.9055 85.1922 12.1857C85.1922 11.5993 85.0652 11.228 84.7622 10.8664ZM0 0H8.53095V8.53095H0V0ZM9.46906 0H18V8.53095H9.46906V0ZM0 9.46906H8.53095V18H0V9.46906ZM9.46906 9.46906H18V18H9.46906V9.46906Z" fill="#060606"/>
</svg>
